<?xml version="1.0" standalone="no"?>
<!DOCTYPE svg PUBLIC "-//W3C//DTD SVG 20010904//EN"
 "http://www.w3.org/TR/2001/REC-SVG-20010904/DTD/svg10.dtd">
<svg version="1.0" xmlns="http://www.w3.org/2000/svg"
 width="64.000000pt" height="64.000000pt" viewBox="0 0 64.000000 64.000000"
 preserveAspectRatio="xMidYMid meet">

<g transform="translate(0.000000,64.000000) scale(0.100000,-0.100000)"
fill="#000000" stroke="none">
<path d="M157 633 c-4 -3 -7 -15 -7 -25 0 -13 -7 -18 -25 -18 -39 0 -83 -27
-105 -63 -18 -29 -20 -51 -20 -230 0 -220 5 -242 63 -277 29 -18 51 -20 257
-20 326 0 320 -6 320 298 0 191 -1 200 -23 233 -26 38 -60 59 -99 59 -20 0
-27 6 -30 22 -4 33 -36 35 -44 4 l-6 -26 -118 0 c-117 0 -118 0 -124 25 -6 24
-25 33 -39 18z m-5 -125 c2 -25 8 -33 23 -33 15 0 21 8 23 33 l3 32 119 0 119
0 3 -32 c2 -25 8 -33 23 -33 15 0 21 8 23 33 3 27 7 32 29 32 36 0 73 -37 73
-72 l0 -28 -270 0 -270 0 0 27 c0 36 36 73 71 73 24 0 28 -4 31 -32z m438
-263 c0 -142 -1 -147 -25 -170 l-24 -25 -221 0 -221 0 -24 25 c-24 23 -25 28
-25 170 l0 145 270 0 270 0 0 -145z"/>
<path d="M127 307 c-10 -25 9 -38 49 -35 31 2 39 7 39 23 0 16 -8 21 -41 23
-28 2 -43 -1 -47 -11z"/>
<path d="M274 305 c-10 -25 9 -37 52 -33 31 2 39 7 39 23 0 16 -8 21 -43 23
-32 2 -44 -1 -48 -13z"/>
<path d="M424 305 c-9 -24 5 -35 46 -35 37 0 51 12 43 38 -7 17 -82 16 -89 -3z"/>
<path d="M127 156 c-9 -22 17 -38 55 -34 25 2 33 8 33 23 0 16 -8 21 -41 23
-29 2 -43 -1 -47 -12z"/>
<path d="M275 160 c-20 -32 60 -55 85 -25 18 22 3 35 -40 35 -21 0 -42 -5 -45
-10z"/>
<path d="M423 154 c-7 -19 13 -34 48 -34 29 0 55 23 44 40 -10 17 -85 12 -92
-6z"/>
</g>
</svg>
