<?xml version="1.0" encoding="UTF-8"?>
<svg version="1.1" xmlns="http://www.w3.org/2000/svg" width="64" height="64">
<path d="M0 0 C8.34296853 4.97488123 13.53708251 11.86384564 16.109375 21.2578125 C16.89814221 30.10851435 17.06941889 38.555881 12.109375 46.2578125 C11.67367187 46.96421875 11.23796875 47.670625 10.7890625 48.3984375 C6.10935787 55.30291974 0.10880944 59.05772679 -7.890625 61.2578125 C-16.74132685 62.04657971 -25.1886935 62.21785639 -32.890625 57.2578125 C-33.59703125 56.82210937 -34.3034375 56.38640625 -35.03125 55.9375 C-41.93709584 51.25687115 -45.68778524 45.25759899 -47.890625 37.2578125 C-48.88914012 26.15803978 -48.24009702 16.5233259 -41.140625 7.4453125 C-30.84272373 -3.5807232 -13.59449082 -6.52353083 0 0 Z M-37.484375 14.16015625 C-41.69518033 20.4412742 -42.88848151 26.76254942 -41.890625 34.2578125 C-40.10044165 41.38657832 -36.89471302 46.92981788 -30.890625 51.2578125 C-23.60680939 55.38326773 -16.4285646 56.66097861 -8.28515625 54.59765625 C-1.25409636 52.14050824 3.73281031 48.45382434 7.42578125 41.93359375 C10.92125687 34.17534299 11.35778424 27.1136502 8.546875 19.0703125 C5.27058618 11.77312377 0.08668323 6.84056062 -7.375 3.921875 C-19.4117156 0.74448113 -29.82843139 4.49994438 -37.484375 14.16015625 Z " fill="#06236D" transform="translate(47.890625,2.7421875)"/>
<path d="M0 0 C1.65 0.33 3.3 0.66 5 1 C5 5.95 5 10.9 5 16 C8.3 16 11.6 16 15 16 C15.38218767 17.65614657 15.71395102 19.32457024 16 21 C14.24440058 22.75559942 11.96417558 22.13221919 9.62890625 22.13671875 C8.92636719 22.13285156 8.22382812 22.12898438 7.5 22.125 C6.79746094 22.12886719 6.09492187 22.13273437 5.37109375 22.13671875 C0.12661378 22.12661378 0.12661378 22.12661378 -1 21 C-1.09880797 19.52347336 -1.13079245 18.04232764 -1.1328125 16.5625 C-1.13410156 15.66789062 -1.13539062 14.77328125 -1.13671875 13.8515625 C-1.13091797 12.44003906 -1.13091797 12.44003906 -1.125 11 C-1.12886719 10.05898438 -1.13273437 9.11796875 -1.13671875 8.1484375 C-1.13542969 7.25382812 -1.13414063 6.35921875 -1.1328125 5.4375 C-1.13112061 4.19806641 -1.13112061 4.19806641 -1.12939453 2.93359375 C-1 1 -1 1 0 0 Z " fill="#07246F" transform="translate(30,13)"/>
</svg>
