<?xml version="1.0" standalone="no"?>
<!DOCTYPE svg PUBLIC "-//W3C//DTD SVG 20010904//EN"
 "http://www.w3.org/TR/2001/REC-SVG-20010904/DTD/svg10.dtd">
<svg version="1.0" xmlns="http://www.w3.org/2000/svg"
 width="64.000000pt" height="64.000000pt" viewBox="0 0 64.000000 64.000000"
 preserveAspectRatio="xMidYMid meet">

<g transform="translate(0.000000,64.000000) scale(0.100000,-0.100000)"
fill="#000000" stroke="none">
<path d="M223 622 c-109 -39 -178 -112 -210 -221 -29 -102 4 -228 82 -306 122
-121 328 -121 450 0 91 92 118 241 64 356 -69 146 -241 223 -386 171z m156
-43 c179 -38 267 -262 160 -408 -112 -156 -326 -156 -438 0 -104 142 -25 359
147 405 60 16 70 16 131 3z"/>
<path d="M300 491 c-5 -11 -10 -53 -10 -95 0 -91 11 -106 80 -106 61 0 80 7
80 30 0 21 -19 30 -66 30 l-34 0 0 61 c0 60 -12 99 -30 99 -5 0 -14 -9 -20
-19z"/>
</g>
</svg>
