<?xml version="1.0" encoding="UTF-8"?>
<svg version="1.1" xmlns="http://www.w3.org/2000/svg" width="64" height="64">
<path d="M0 0 C1.25159912 0.00523682 2.50319824 0.01047363 3.79272461 0.01586914 C4.78942421 0.01799156 4.78942421 0.01799156 5.80625916 0.02015686 C7.93590735 0.02577021 10.06545175 0.03832485 12.19506836 0.05102539 C13.63582205 0.05603868 15.07657739 0.06060188 16.51733398 0.06469727 C20.05577938 0.07574394 23.59416375 0.09301747 27.13256836 0.11352539 C27.7809149 1.38307839 28.42614651 2.65422245 29.07006836 3.92602539 C29.60954102 4.98756836 29.60954102 4.98756836 30.15991211 6.07055664 C31.13256836 8.11352539 31.13256836 8.11352539 32.13256836 11.11352539 C34.60387753 12.26874042 34.60387753 12.26874042 37.13256836 13.11352539 C37.62756836 13.60852539 37.62756836 13.60852539 38.13256836 14.11352539 C38.04391782 15.94767448 37.93574262 17.78088214 37.82006836 19.61352539 C37.7092424 27.31166735 40.04684607 33.41975185 42.82006836 40.46118164 C44.13256836 44.11352539 44.13256836 44.11352539 44.13256836 48.11352539 C23.01256836 48.11352539 1.89256836 48.11352539 -19.86743164 48.11352539 C-19.08980363 42.67012931 -18.31192936 39.37164805 -16.30493164 34.48852539 C-13.98444015 28.29612809 -13.4624311 23.22862811 -13.88696289 16.66040039 C-13.86743164 14.11352539 -13.86743164 14.11352539 -11.86743164 12.11352539 C-11.21129883 12.01040039 -10.55516602 11.90727539 -9.87915039 11.80102539 C-7.63299399 11.28618123 -7.63299399 11.28618123 -6.63696289 8.86352539 C-6.16323242 7.50227539 -6.16323242 7.50227539 -5.67993164 6.11352539 C-3.55036718 0.14056371 -3.55036718 0.14056371 0 0 Z M-0.86743164 3.11352539 C-1.85743164 6.08352539 -2.84743164 9.05352539 -3.86743164 12.11352539 C-2.87743164 12.11352539 -1.88743164 12.11352539 -0.86743164 12.11352539 C-0.20743164 9.14352539 0.45256836 6.17352539 1.13256836 3.11352539 C0.47256836 3.11352539 -0.18743164 3.11352539 -0.86743164 3.11352539 Z M5.13256836 3.11352539 C4.80256836 3.77352539 4.47256836 4.43352539 4.13256836 5.11352539 C9.41256836 5.11352539 14.69256836 5.11352539 20.13256836 5.11352539 C20.13256836 4.45352539 20.13256836 3.79352539 20.13256836 3.11352539 C15.18256836 3.11352539 10.23256836 3.11352539 5.13256836 3.11352539 Z M23.13256836 3.11352539 C23.79256836 6.08352539 24.45256836 9.05352539 25.13256836 12.11352539 C26.12256836 12.11352539 27.11256836 12.11352539 28.13256836 12.11352539 C27.14256836 9.14352539 26.15256836 6.17352539 25.13256836 3.11352539 C24.47256836 3.11352539 23.81256836 3.11352539 23.13256836 3.11352539 Z M3.13256836 8.11352539 C2.80256836 9.43352539 2.47256836 10.75352539 2.13256836 12.11352539 C4.77256836 12.11352539 7.41256836 12.11352539 10.13256836 12.11352539 C10.13256836 10.79352539 10.13256836 9.47352539 10.13256836 8.11352539 C7.82256836 8.11352539 5.51256836 8.11352539 3.13256836 8.11352539 Z M14.13256836 8.11352539 C14.13256836 9.43352539 14.13256836 10.75352539 14.13256836 12.11352539 C16.77256836 12.11352539 19.41256836 12.11352539 22.13256836 12.11352539 C21.80256836 10.79352539 21.47256836 9.47352539 21.13256836 8.11352539 C18.82256836 8.11352539 16.51256836 8.11352539 14.13256836 8.11352539 Z M-10.86743164 16.11352539 C-10.86743164 18.09352539 -10.86743164 20.07352539 -10.86743164 22.11352539 C4.31256836 22.11352539 19.49256836 22.11352539 35.13256836 22.11352539 C35.13256836 20.13352539 35.13256836 18.15352539 35.13256836 16.11352539 C33.58755385 14.56851089 32.14596616 14.98633408 29.99584961 14.98413086 C29.11823975 14.9809787 28.24062988 14.97782654 27.33642578 14.97457886 C26.38227783 14.97660309 25.42812988 14.97862732 24.44506836 14.98071289 C23.472229 14.97975616 22.49938965 14.97879944 21.49707031 14.97781372 C19.43579036 14.97713181 17.37450827 14.97898687 15.31323242 14.9831543 C12.14619148 14.98850239 8.97929236 14.98320967 5.81225586 14.97680664 C3.81485971 14.97746742 1.81746365 14.97874858 -0.17993164 14.98071289 C-1.13407959 14.97868866 -2.08822754 14.97666443 -3.07128906 14.97457886 C-4.38770386 14.9793071 -4.38770386 14.9793071 -5.73071289 14.98413086 C-6.50713135 14.98492645 -7.2835498 14.98572205 -8.08349609 14.98654175 C-9.89176826 14.91948997 -9.89176826 14.91948997 -10.86743164 16.11352539 Z M-8.86743164 25.11352539 C-9.65955093 27.00916965 -10.4511074 28.9050491 -11.24243164 30.80102539 C-11.68329102 31.85676758 -12.12415039 32.91250977 -12.57836914 34.00024414 C-13.00375977 35.02762695 -13.42915039 36.05500977 -13.86743164 37.11352539 C-14.25157227 38.0068457 -14.63571289 38.90016602 -15.03149414 39.82055664 C-16.03868864 42.17651615 -16.03868864 42.17651615 -15.86743164 45.11352539 C-13.88743164 45.11352539 -11.90743164 45.11352539 -9.86743164 45.11352539 C-9.02991003 42.15636132 -8.19813133 39.19761239 -7.36743164 36.23852539 C-7.12895508 35.39676758 -6.89047852 34.55500977 -6.64477539 33.68774414 C-6.41918945 32.88208008 -6.19360352 32.07641602 -5.96118164 31.24633789 C-5.75170898 30.50270996 -5.54223633 29.75908203 -5.32641602 28.99291992 C-4.78834941 27.11214712 -4.78834941 27.11214712 -4.86743164 25.11352539 C-6.18743164 25.11352539 -7.50743164 25.11352539 -8.86743164 25.11352539 Z M-1.86743164 25.11352539 C-3.06030576 28.99036626 -3.86743164 32.02974463 -3.86743164 36.11352539 C0.75256836 36.11352539 5.37256836 36.11352539 10.13256836 36.11352539 C10.13256836 32.48352539 10.13256836 28.85352539 10.13256836 25.11352539 C6.17256836 25.11352539 2.21256836 25.11352539 -1.86743164 25.11352539 Z M14.13256836 25.11352539 C14.13256836 28.74352539 14.13256836 32.37352539 14.13256836 36.11352539 C18.75256836 36.11352539 23.37256836 36.11352539 28.13256836 36.11352539 C27.62804617 32.36564628 27.05097602 28.78715605 26.13256836 25.11352539 C22.17256836 25.11352539 18.21256836 25.11352539 14.13256836 25.11352539 Z M29.13256836 25.11352539 C29.4097168 26.22211914 29.68686523 27.33071289 29.97241211 28.47290039 C31.35913086 34.01977539 32.74584961 39.56665039 34.13256836 45.11352539 C36.11256836 45.11352539 38.09256836 45.11352539 40.13256836 45.11352539 C39.39316217 40.90212491 38.22407623 36.92201123 36.88256836 32.86352539 C36.48553711 31.62086914 36.08850586 30.37821289 35.67944336 29.09790039 C34.44539277 25.87802337 34.44539277 25.87802337 31.46069336 25.19165039 C30.69241211 25.16586914 29.92413086 25.14008789 29.13256836 25.11352539 Z M-5.86743164 39.11352539 C-6.19743164 41.09352539 -6.52743164 43.07352539 -6.86743164 45.11352539 C5.67256836 45.11352539 18.21256836 45.11352539 31.13256836 45.11352539 C30.63756836 42.14352539 30.63756836 42.14352539 30.13256836 39.11352539 C18.25256836 39.11352539 6.37256836 39.11352539 -5.86743164 39.11352539 Z " fill="#06236E" transform="translate(19.867431640625,7.886474609375)"/>
</svg>
