<?xml version="1.0" standalone="no"?>
<!DOCTYPE svg PUBLIC "-//W3C//DTD SVG 20010904//EN"
 "http://www.w3.org/TR/2001/REC-SVG-20010904/DTD/svg10.dtd">
<svg version="1.0" xmlns="http://www.w3.org/2000/svg"
 width="64.000000pt" height="64.000000pt" viewBox="0 0 64.000000 64.000000"
 preserveAspectRatio="xMidYMid meet">

<g transform="translate(0.000000,64.000000) scale(0.100000,-0.100000)"
fill="#000000" stroke="none">
<path d="M173 548 c-4 -7 -17 -35 -28 -63 -15 -36 -27 -51 -45 -55 -33 -8 -48
-50 -33 -91 10 -27 8 -43 -23 -126 -53 -148 -85 -133 276 -133 361 0 329 -15
276 133 -31 83 -33 99 -23 126 15 41 0 83 -33 91 -18 4 -30 19 -45 55 -32 79
-22 75 -175 75 -100 0 -141 -3 -147 -12z m41 -35 c-4 -16 -10 -39 -14 -53 -4
-15 -15 -26 -28 -28 -27 -4 -27 4 -2 62 22 52 55 66 44 19z m186 12 c0 -12
-16 -15 -80 -15 -64 0 -80 3 -80 15 0 12 16 15 80 15 64 0 80 -3 80 -15z m70
-31 c25 -58 25 -66 -2 -62 -13 2 -24 13 -28 28 -20 77 -21 80 -5 80 9 0 24
-19 35 -46z m-160 -34 c0 -29 -1 -30 -50 -30 -39 0 -48 3 -45 15 3 8 7 22 10
30 3 10 18 15 45 15 38 0 40 -2 40 -30z m111 -2 c7 -28 7 -28 -42 -28 -48 0
-49 1 -49 31 0 29 1 30 42 27 36 -3 43 -7 49 -30z m137 -85 l3 -33 -240 0
-241 0 0 28 c0 16 3 32 7 36 4 3 110 5 237 4 l231 -3 3 -32z m-406 -59 c4 -3
-2 -36 -13 -72 -11 -37 -24 -84 -30 -104 -9 -35 -13 -38 -44 -38 -19 0 -35 4
-35 8 0 11 58 170 71 193 9 18 39 26 51 13z m158 -54 l0 -60 -80 0 c-44 0 -80
3 -80 6 0 3 7 30 16 60 l15 54 65 0 64 0 0 -60z m164 6 c9 -30 16 -57 16 -60
0 -3 -36 -6 -80 -6 l-80 0 0 60 0 60 64 0 65 0 15 -54z m65 35 c13 -23 71
-182 71 -193 0 -4 -16 -8 -35 -8 -31 0 -35 3 -44 38 -6 20 -19 67 -30 104 -11
36 -17 69 -13 72 12 13 42 5 51 -13z m-35 -141 c19 -67 39 -60 -184 -60 l-201
0 6 23 c4 12 9 30 11 40 5 15 22 17 184 17 170 0 179 -1 184 -20z"/>
</g>
</svg>
