<?xml version="1.0" standalone="no"?>
<!DOCTYPE svg PUBLIC "-//W3C//DTD SVG 20010904//EN"
 "http://www.w3.org/TR/2001/REC-SVG-20010904/DTD/svg10.dtd">
<svg version="1.0" xmlns="http://www.w3.org/2000/svg"
 width="64.000000pt" height="64.000000pt" viewBox="0 0 64.000000 64.000000"
 preserveAspectRatio="xMidYMid meet">

<g transform="translate(0.000000,64.000000) scale(0.100000,-0.100000)"
fill="#000000" stroke="none">
<path d="M304 629 c-24 -12 -44 -49 -44 -79 0 -19 -8 -20 -105 -20 -99 0 -107
-2 -130 -25 -30 -29 -30 -18 -1 -237 25 -190 34 -214 89 -249 30 -18 47 -19
239 -17 l208 3 37 37 c35 35 38 43 41 105 5 113 -47 173 -151 173 l-48 0 7 83
c6 83 6 84 -21 105 -19 15 -42 22 -71 22 -36 0 -44 3 -44 19 0 29 20 40 80 43
47 3 55 6 55 23 0 18 -7 20 -60 22 -33 1 -70 -3 -81 -8z m-56 -171 c-3 -22 -8
-23 -100 -26 -77 -2 -98 0 -98 11 0 29 25 37 113 37 86 0 88 -1 85 -22z m150
-5 c3 -21 0 -23 -47 -23 -48 0 -51 2 -51 26 0 24 2 25 48 22 40 -3 47 -6 50
-25z m-10 -105 c-2 -19 -11 -24 -44 -28 -49 -7 -87 -30 -111 -67 -21 -32 -24
-145 -4 -180 11 -22 10 -23 -33 -23 -76 0 -95 25 -111 150 -8 58 -17 120 -19
138 l-5 32 165 0 165 0 -3 -22z m173 -107 c16 -16 29 -34 29 -40 0 -7 -52 -11
-160 -11 -165 0 -171 1 -149 41 16 30 45 38 152 38 96 1 99 0 128 -28z m-153
-136 c45 -31 45 -31 90 0 37 25 92 34 92 14 0 -6 -14 -24 -30 -41 l-30 -30
-111 4 c-102 3 -112 5 -130 27 -32 39 -25 51 32 51 37 0 60 -6 87 -25z"/>
</g>
</svg>
