<?xml version="1.0" encoding="UTF-8"?>
<svg version="1.1" xmlns="http://www.w3.org/2000/svg" width="64" height="64">
<path d="M0 0 C0.70189453 0.00902344 1.40378906 0.01804688 2.12695312 0.02734375 C3.85561525 0.05086296 5.58410145 0.08673287 7.3125 0.125 C7.9375 2 7.9375 2 8.3125 4.125 C5.72323669 6.71426331 4.28544721 6.49898043 0.6875 6.75 C-0.31539062 6.82476563 -1.31828125 6.89953125 -2.3515625 6.9765625 C-3.50785156 7.05003906 -3.50785156 7.05003906 -4.6875 7.125 C-5.0175 8.115 -5.3475 9.105 -5.6875 10.125 C-3.8621875 10.00125 -3.8621875 10.00125 -2 9.875 C1.3851174 9.86299604 2.25118234 10.08586107 5.25 12 C7.3125 14.125 7.3125 14.125 8.3125 16.125 C8.24952418 18.46083036 8.1141592 20.79500838 7.9375 23.125 C7.80214844 25.0121875 7.80214844 25.0121875 7.6640625 26.9375 C7.3125 30.125 7.3125 30.125 6.3125 32.125 C7.52486328 32.07279297 7.52486328 32.07279297 8.76171875 32.01953125 C9.83035156 31.99246094 10.89898437 31.96539063 12 31.9375 C13.05574219 31.90269531 14.11148438 31.86789063 15.19921875 31.83203125 C18.78791926 32.16973832 20.48823106 32.90696255 23.3125 35.125 C26.63172555 39.18344172 26.77142389 43.07091666 26.6875 48.125 C26.69910156 48.82367188 26.71070312 49.52234375 26.72265625 50.2421875 C26.69732228 54.71785638 26.16189756 57.64102045 23.3125 61.125 C18.67696134 64.85464594 14.13194425 64.60815075 8.4453125 64.62890625 C7.49236298 64.63889145 6.53941345 64.64887665 5.55758667 64.65916443 C3.54543386 64.67432365 1.53320595 64.6813909 -0.47900391 64.6809082 C-3.54586991 64.68746445 -6.60948844 64.74195374 -9.67578125 64.79882812 C-11.63540565 64.80763216 -13.59504535 64.81358506 -15.5546875 64.81640625 C-16.46531952 64.8379628 -17.37595154 64.85951935 -18.31417847 64.88172913 C-24.08842164 64.82006193 -27.1694284 63.7108797 -31.38201904 59.72027588 C-35.66520124 54.48629893 -35.51662483 45.93850078 -36.3125 39.4375 C-36.4465625 38.42494141 -36.580625 37.41238281 -36.71875 36.36914062 C-39.07281502 17.50058887 -39.07281502 17.50058887 -36.35791016 12.8449707 C-34.2746537 10.69990468 -32.5692346 10.17301576 -29.6027832 10.01147461 C-28.82249756 10.01671143 -28.04221191 10.02194824 -27.23828125 10.02734375 C-26.39072266 10.03056641 -25.54316406 10.03378906 -24.66992188 10.03710938 C-23.78884766 10.04548828 -22.90777344 10.05386719 -22 10.0625 C-20.66098633 10.06926758 -20.66098633 10.06926758 -19.29492188 10.07617188 C-17.09238013 10.08795017 -14.88997401 10.10439836 -12.6875 10.125 C-12.419375 8.84625 -12.15125 7.5675 -11.875 6.25 C-10.4699683 -0.45092041 -5.94856989 -0.14440973 0 0 Z M-31.6875 17.125 C-31.6875 18.445 -31.6875 19.765 -31.6875 21.125 C-25.7475 21.125 -19.8075 21.125 -13.6875 21.125 C-13.6875 19.805 -13.6875 18.485 -13.6875 17.125 C-19.6275 17.125 -25.5675 17.125 -31.6875 17.125 Z M-6.6875 17.125 C-7.0175 18.445 -7.3475 19.765 -7.6875 21.125 C-4.7175 21.125 -1.7475 21.125 1.3125 21.125 C1.3125 19.805 1.3125 18.485 1.3125 17.125 C-1.3275 17.125 -3.9675 17.125 -6.6875 17.125 Z M-30.6875 27.125 C-30.40071381 42.29820276 -30.40071381 42.29820276 -25.5 56.4375 C-22.00894681 58.53213191 -19.69157614 58.25203884 -15.6875 58.125 C-15.73390625 56.96742187 -15.7803125 55.80984375 -15.828125 54.6171875 C-15.86566248 53.07815094 -15.90206051 51.5390863 -15.9375 50 C-15.97101562 49.23945312 -16.00453125 48.47890625 -16.0390625 47.6953125 C-16.13137262 42.34132554 -15.26451832 39.35823391 -11.6875 35.125 C-8.65224514 33.10149676 -7.49323798 32.80375982 -4 32.5 C-3.19175781 32.42523438 -2.38351563 32.35046875 -1.55078125 32.2734375 C-0.62845703 32.19996094 -0.62845703 32.19996094 0.3125 32.125 C0.3125 30.475 0.3125 28.825 0.3125 27.125 C-9.9175 27.125 -20.1475 27.125 -30.6875 27.125 Z M-9.6875 41.125 C-10.0175 42.445 -10.3475 43.765 -10.6875 45.125 C-0.4575 45.125 9.7725 45.125 20.3125 45.125 C18.83610997 40.06491361 18.83610997 40.06491361 15.3125 38.125 C11.84779062 37.69339796 8.36371409 37.80076929 4.875 37.8125 C3.92044922 37.79638672 2.96589844 37.78027344 1.98242188 37.76367188 C1.06138672 37.76302734 0.14035156 37.76238281 -0.80859375 37.76171875 C-2.06820923 37.75724731 -2.06820923 37.75724731 -3.35327148 37.75268555 C-6.25897414 38.21615135 -7.59650247 39.07001909 -9.6875 41.125 Z M-10.6875 51.125 C-9.43773244 54.77816671 -9.01651247 55.90565836 -5.6875 58.125 C-2.24546754 58.60679241 1.21530117 58.54138528 4.6875 58.5625 C5.63367188 58.59537109 6.57984375 58.62824219 7.5546875 58.66210938 C12.33174486 58.6990108 14.57202688 58.68721107 18.4765625 55.72265625 C20.50488841 53.38295029 20.50488841 53.38295029 20.3125 51.125 C17.31802858 51.55278163 15.4614033 52.02311879 12.9375 53.75 C9.320924 55.64439695 7.21019796 55.1171413 3.3125 54.125 C2.37857422 53.36123047 2.37857422 53.36123047 1.42578125 52.58203125 C-1.22298721 50.75580087 -2.75843641 50.81201065 -5.9375 50.9375 C-7.27554687 50.97810547 -7.27554687 50.97810547 -8.640625 51.01953125 C-9.65382813 51.07173828 -9.65382813 51.07173828 -10.6875 51.125 Z " fill="#06236E" transform="translate(37.6875,-0.125)"/>
</svg>
