<?xml version="1.0" encoding="UTF-8"?>
<svg version="1.1" xmlns="http://www.w3.org/2000/svg" width="64" height="64">
<path d="M0 0 C8.67466174 5.07681023 14.38553084 12.40659251 17.5625 21.9375 C17.68620327 23.43203033 17.76321257 24.93073321 17.80859375 26.4296875 C17.84146484 27.29980469 17.87433594 28.16992188 17.90820312 29.06640625 C17.96913594 30.88920484 18.02645964 32.71212784 18.08007812 34.53515625 C18.3198189 40.65985459 18.55331367 44.82950122 22.9453125 49.4375 C24.77628361 51.10676141 26.60962794 52.77342335 28.4453125 54.4375 C30.5625 56.9375 30.5625 56.9375 30.8671875 59.75 C30.76664062 60.471875 30.66609375 61.19375 30.5625 61.9375 C28.41015625 62.27734375 28.41015625 62.27734375 25.5625 61.9375 C23.50906217 60.16950459 21.78871691 58.50207288 20 56.5 C16.23661479 52.3535467 13.93861354 50.24019845 8.27246094 49.73217773 C7.45551758 49.69552002 6.63857422 49.6588623 5.796875 49.62109375 C4.90742187 49.57919922 4.01796875 49.53730469 3.1015625 49.49414062 C1.72097656 49.43516602 1.72097656 49.43516602 0.3125 49.375 C-0.62335937 49.33181641 -1.55921875 49.28863281 -2.5234375 49.24414062 C-4.82798641 49.1383195 -7.13263839 49.03623443 -9.4375 48.9375 C-9.27902588 48.35323242 -9.12055176 47.76896484 -8.95727539 47.16699219 C-8.19007148 43.87619552 -8.06911332 40.55019583 -7.875 37.1875 C-7.730625 34.795 -7.58625 32.4025 -7.4375 29.9375 C-12.7175 29.9375 -17.9975 29.9375 -23.4375 29.9375 C-23.7675 30.9275 -24.0975 31.9175 -24.4375 32.9375 C-26.5 34.125 -26.5 34.125 -28.4375 34.9375 C-33.70038364 27.2978302 -34.47055726 21.15477792 -33.4375 11.9375 C-31.26250028 6.29534204 -27.20949601 1.67397099 -21.8984375 -1.24609375 C-14.71155061 -3.63031495 -6.85073484 -3.14820028 0 0 Z M-11.4375 3.9375 C-11.4375 7.2375 -11.4375 10.5375 -11.4375 13.9375 C-10.1175 13.9375 -8.7975 13.9375 -7.4375 13.9375 C-7.4375 10.9675 -7.4375 7.9975 -7.4375 4.9375 C-8.7575 4.6075 -10.0775 4.2775 -11.4375 3.9375 Z M-23.4375 7.9375 C-25.26379794 11.00430799 -25.26379794 11.00430799 -26.4375 13.9375 C-23.4675 13.9375 -20.4975 13.9375 -17.4375 13.9375 C-17.4375 10.9675 -17.4375 7.9975 -17.4375 4.9375 C-19.80772042 4.9375 -21.60494526 6.62853233 -23.4375 7.9375 Z M-1.4375 7.9375 C-1.4375 9.9175 -1.4375 11.8975 -1.4375 13.9375 C0.8725 13.9375 3.1825 13.9375 5.5625 13.9375 C2.38710444 10.51171051 2.38710444 10.51171051 -1.4375 7.9375 Z M-27.4375 19.9375 C-27.1075 21.2575 -26.7775 22.5775 -26.4375 23.9375 C-23.4675 23.9375 -20.4975 23.9375 -17.4375 23.9375 C-17.4375 22.6175 -17.4375 21.2975 -17.4375 19.9375 C-20.7375 19.9375 -24.0375 19.9375 -27.4375 19.9375 Z M-11.4375 19.9375 C-11.4375 21.2575 -11.4375 22.5775 -11.4375 23.9375 C-10.1175 23.9375 -8.7975 23.9375 -7.4375 23.9375 C-7.4375 22.6175 -7.4375 21.2975 -7.4375 19.9375 C-8.7575 19.9375 -10.0775 19.9375 -11.4375 19.9375 Z M-1.4375 19.9375 C-1.4375 21.2575 -1.4375 22.5775 -1.4375 23.9375 C2.5225 23.9375 6.4825 23.9375 10.5625 23.9375 C10.2325 22.6175 9.9025 21.2975 9.5625 19.9375 C5.9325 19.9375 2.3025 19.9375 -1.4375 19.9375 Z M-1.4375 29.9375 C-1.4375 33.8975 -1.4375 37.8575 -1.4375 41.9375 C3.53205529 40.94358894 5.02517535 40.28361791 8.5625 36.9375 C10.27055274 34.25341712 10.5625 33.17580467 10.5625 29.9375 C6.6025 29.9375 2.6425 29.9375 -1.4375 29.9375 Z " fill="#06236E" transform="translate(33.4375,2.0625)"/>
<path d="M0 0 C2.5 2.125 2.5 2.125 4 5 C3.936318 8.18409977 3.51040601 10.14932332 1.875 12.875 C-1.12446786 14.67468071 -3.59386668 14.36494286 -7 14 C-8.9375 13 -8.9375 13 -10 11 C-10.52960415 7.41957756 -10.65886567 4.24021772 -8.9375 1 C-5.78136563 -0.62897258 -3.47848951 -0.48820905 0 0 Z " fill="#06236E" transform="translate(18,37)"/>
</svg>
