<?xml version="1.0" standalone="no"?>
<!DOCTYPE svg PUBLIC "-//W3C//DTD SVG 20010904//EN"
 "http://www.w3.org/TR/2001/REC-SVG-20010904/DTD/svg10.dtd">
<svg version="1.0" xmlns="http://www.w3.org/2000/svg"
 width="64.000000pt" height="64.000000pt" viewBox="0 0 64.000000 64.000000"
 preserveAspectRatio="xMidYMid meet">

<g transform="translate(0.000000,64.000000) scale(0.100000,-0.100000)"
fill="#000000" stroke="none">
<path d="M145 629 c-90 -34 -152 -131 -142 -219 3 -27 15 -67 27 -89 18 -37
22 -40 40 -29 11 7 20 16 20 20 0 5 41 8 90 8 l90 0 0 -64 c0 -36 -4 -76 -9
-89 -9 -22 -7 -25 21 -31 17 -3 66 -6 110 -6 l80 0 69 -66 c45 -44 73 -64 84
-61 26 11 17 28 -49 96 l-63 66 -5 117 c-5 100 -9 125 -32 172 -30 60 -93 124
-156 156 -50 25 -133 34 -175 19z m125 -100 c0 -48 -1 -49 -30 -49 -29 0 -30
1 -30 48 0 57 2 61 35 54 23 -4 25 -9 25 -53z m-113 -46 c-3 -2 -27 -3 -53 -1
l-49 3 50 50 50 50 3 -49 c2 -26 1 -50 -1 -53z m231 9 c2 -8 -9 -12 -32 -12
-35 0 -36 1 -36 36 l0 37 32 -25 c18 -14 34 -30 36 -36z m-228 -92 c0 -29 -1
-30 -49 -30 -44 0 -49 2 -53 25 -7 33 -3 35 54 35 47 0 48 -1 48 -30z m110 0
c0 -27 -3 -30 -30 -30 -27 0 -30 3 -30 30 0 27 3 30 30 30 27 0 30 -3 30 -30z
m170 11 c19 -36 12 -41 -55 -41 l-65 0 0 30 c0 30 1 30 55 30 43 0 56 -4 65
-19z m10 -102 c0 -37 -82 -119 -119 -119 -7 0 -11 23 -11 65 l0 65 65 0 c42 0
65 -4 65 -11z"/>
<path d="M123 260 c-23 -9 -43 -39 -43 -63 0 -27 35 -60 63 -60 64 1 90 74 41
112 -30 23 -30 23 -61 11z"/>
</g>
</svg>
