<?xml version="1.0" standalone="no"?>
<!DOCTYPE svg PUBLIC "-//W3C//DTD SVG 20010904//EN"
 "http://www.w3.org/TR/2001/REC-SVG-20010904/DTD/svg10.dtd">
<svg version="1.0" xmlns="http://www.w3.org/2000/svg"
 width="64.000000pt" height="64.000000pt" viewBox="0 0 64.000000 64.000000"
 preserveAspectRatio="xMidYMid meet">

<g transform="translate(0.000000,64.000000) scale(0.100000,-0.100000)"
fill="#000000" stroke="none">
<path d="M206 624 c-24 -24 -19 -60 13 -97 l30 -33 -35 -19 c-51 -27 -122
-108 -151 -172 -16 -35 -28 -81 -30 -122 -4 -57 -2 -71 19 -100 50 -74 58 -76
268 -76 210 0 218 2 268 76 50 72 10 228 -82 327 -25 27 -61 57 -80 67 l-35
19 30 33 c32 37 37 73 13 97 -12 12 -38 16 -114 16 -76 0 -102 -4 -114 -16z
m184 -53 c-5 -11 -23 -29 -40 -41 l-30 -21 -30 21 c-17 12 -35 30 -40 41 -10
18 -7 19 70 19 77 0 80 -1 70 -19z m9 -141 c109 -55 191 -234 147 -319 -22
-42 -68 -61 -150 -61 l-64 0 11 29 c6 18 21 32 35 36 14 3 29 19 38 40 13 31
13 39 -1 65 -15 29 -22 33 -100 48 -30 6 -40 13 -40 27 0 16 8 21 44 23 24 2
49 -2 54 -7 17 -17 47 -13 47 6 0 22 -29 53 -49 53 -9 0 -22 14 -28 30 -14 38
-32 38 -46 1 -6 -18 -21 -32 -35 -36 -31 -8 -56 -64 -43 -99 12 -31 23 -37 90
-51 45 -9 56 -15 56 -30 0 -16 -8 -21 -44 -23 -24 -2 -49 2 -54 7 -13 13 -44
14 -51 2 -8 -13 33 -61 53 -61 9 0 21 -13 28 -30 l11 -30 -66 0 c-118 0 -167
42 -158 136 8 92 79 204 155 244 47 25 112 25 160 0z"/>
</g>
</svg>
