<?xml version="1.0" encoding="UTF-8"?>
<svg version="1.1" xmlns="http://www.w3.org/2000/svg" width="64" height="64">
<path d="M0 0 C1.01513672 -0.020625 2.03027344 -0.04125 3.07617188 -0.0625 C4.05005859 -0.06765625 5.02394531 -0.0728125 6.02734375 -0.078125 C6.9205835 -0.0874707 7.81382324 -0.09681641 8.73413086 -0.10644531 C11.0625 0.25 11.0625 0.25 12.88110352 1.55566406 C14.0625 3.25 14.0625 3.25 14 6.6875 C13.00641214 10.46313387 12.05140949 11.83958912 9.0625 14.25 C9.55878906 14.5903125 10.05507813 14.930625 10.56640625 15.28125 C20.10130034 22.08413459 26.90287317 30.20143696 29.6796875 41.8359375 C30.68305879 48.1633197 30.67795854 52.82681219 27.0625 58.25 C21.76619348 63.4756891 18.0321237 64.42135705 10.765625 64.48828125 C9.93923523 64.496353 9.11284546 64.50442474 8.26141357 64.51274109 C6.50958352 64.52658371 4.75772648 64.53730507 3.00585938 64.54516602 C0.33671304 64.56234417 -2.33118331 64.60622289 -5 64.65039062 C-6.7031159 64.66052082 -8.40624233 64.6690359 -10.109375 64.67578125 C-10.90333679 64.69328934 -11.69729858 64.71079742 -12.51531982 64.72883606 C-17.79794693 64.70833587 -20.72822824 63.71373125 -24.9375 60.25 C-28.834341 55.93187889 -30.31944249 52.64572733 -30.2109375 46.75390625 C-28.84325275 34.22982162 -23.07145749 25.27808196 -13.515625 17.44140625 C-12.03097151 16.32056636 -10.48530993 15.28187328 -8.9375 14.25 C-9.783125 13.404375 -10.62875 12.55875 -11.5 11.6875 C-13.87403627 8.8708468 -13.94004102 8.40500232 -13.875 4.4375 C-13.565625 3.385625 -13.25625 2.33375 -12.9375 1.25 C-9.05869395 -0.68940303 -4.26635864 0.02158815 0 0 Z M-6.9375 6.25 C-3.6249452 10.98551216 -3.6249452 10.98551216 -1.0625 12.375 C2.59116332 12.16007863 4.47581513 9.71910829 7.0625 7.25 C7.0625 6.92 7.0625 6.59 7.0625 6.25 C2.4425 6.25 -2.1775 6.25 -6.9375 6.25 Z M-17.171875 29.83203125 C-21.8200557 36.19757074 -23.62429871 41.87022001 -23.3359375 49.7890625 C-22.78569799 53.18760063 -21.49617941 54.9923417 -18.9375 57.25 C-15.93436252 58.75156874 -13.14682478 58.34281204 -9.8125 58.3125 C-8.53117187 58.30347656 -7.24984375 58.29445312 -5.9296875 58.28515625 C-4.44855469 58.26775391 -4.44855469 58.26775391 -2.9375 58.25 C-2.9375 56.93 -2.9375 55.61 -2.9375 54.25 C-3.906875 53.858125 -4.87625 53.46625 -5.875 53.0625 C-8.9375 51.25 -8.9375 51.25 -9.8125 48.5625 C-9.874375 47.4178125 -9.874375 47.4178125 -9.9375 46.25 C-8.9165625 46.4665625 -8.9165625 46.4665625 -7.875 46.6875 C-6.905625 46.873125 -5.93625 47.05875 -4.9375 47.25 C-3.74125 47.4975 -2.545 47.745 -1.3125 48 C-0.19875 48.0825 0.915 48.165 2.0625 48.25 C3.77933595 46.83588297 3.77933595 46.83588297 5.0625 45.25 C4.47082031 45.05664062 3.87914063 44.86328125 3.26953125 44.6640625 C-6.12534328 41.56819846 -6.12534328 41.56819846 -8.9375 40.25 C-10.46241998 37.20016004 -10.17312548 34.6076631 -9.9375 31.25 C-8.42542334 29.05748885 -7.23950706 28.38323841 -4.8125 27.3125 C-2.73028299 26.40354435 -2.73028299 26.40354435 -2.1875 24.125 C-2.105 23.50625 -2.0225 22.8875 -1.9375 22.25 C-0.6175 22.25 0.7025 22.25 2.0625 22.25 C2.10375 22.848125 2.145 23.44625 2.1875 24.0625 C2.91429812 26.59510177 2.91429812 26.59510177 6.0625 27.6875 C9.0625 29.25 9.0625 29.25 9.9375 31.9375 C9.97875 32.700625 10.02 33.46375 10.0625 34.25 C9.0415625 34.0334375 9.0415625 34.0334375 8 33.8125 C7.030625 33.626875 6.06125 33.44125 5.0625 33.25 C3.86625 33.0025 2.67 32.755 1.4375 32.5 C-1.88550983 31.88421487 -1.88550983 31.88421487 -3.875 33.6875 C-4.4009375 34.4609375 -4.4009375 34.4609375 -4.9375 35.25 C-1.55723078 37.50351281 0.97767229 37.91543791 4.90625 38.58984375 C7.42985508 39.36246922 8.48285285 40.14877125 10.0625 42.25 C10.71164992 48.30873261 10.71164992 48.30873261 8.8125 51.0625 C6.95917355 52.32011437 5.1056838 53.33409002 3.0625 54.25 C3.0625 55.57 3.0625 56.89 3.0625 58.25 C5.29058159 58.35853983 7.52019932 58.43583307 9.75 58.5 C10.99136719 58.54640625 12.23273437 58.5928125 13.51171875 58.640625 C17.6321687 58.18733018 19.17037892 57.14748679 22.0625 54.25 C24.533037 49.308926 23.70916177 43.21713524 22.0390625 38.13671875 C18.25999176 29.92089369 13.12850314 23.5881553 4.8125 19.75 C-5.00416769 17.96515133 -11.01134424 22.39816244 -17.171875 29.83203125 Z " fill="#06236E" transform="translate(31.9375,-0.25)"/>
</svg>
