<?xml version="1.0" encoding="UTF-8"?>
<svg version="1.1" xmlns="http://www.w3.org/2000/svg" width="64" height="64">
<path d="M0 0 C6.27586207 -0.36206897 6.27586207 -0.36206897 9.375 1.1875 C11.3698789 3.41255723 11.51572191 5.09907926 12 8 C12.57993713 7.98889694 13.15987427 7.97779388 13.75738525 7.96635437 C19.79171349 7.85576318 25.82575409 7.7803342 31.86083984 7.7253418 C34.11323743 7.70019257 36.36555336 7.66606882 38.61767578 7.62280273 C41.854697 7.562171 45.09063972 7.53379408 48.328125 7.51171875 C49.33554749 7.48591232 50.34296997 7.4601059 51.38092041 7.43351746 C58.36027693 7.43071543 58.36027693 7.43071543 61.6496582 10.35791016 C64.76042794 16.44446776 62.37916443 24.14343356 60.75 30.5 C59.40542714 34.62644773 57.82586698 36.74371947 54 39 C50.89008604 40.55495698 47.56655951 40.24076956 44.1484375 40.31640625 C43.37440582 40.33718735 42.60037415 40.35796844 41.80288696 40.37937927 C39.32701608 40.44483448 36.85103798 40.50374087 34.375 40.5625 C32.69790552 40.60568907 31.02082193 40.64930348 29.34375 40.69335938 C25.22927692 40.80051171 21.11469586 40.90179045 17 41 C20.58246243 44.41926136 23.55124215 44.41569925 28.390625 44.51171875 C29.44754547 44.53864555 29.44754547 44.53864555 30.52581787 44.56611633 C32.76715179 44.62011858 35.00827405 44.65408088 37.25 44.6875 C38.77346689 44.72068218 40.29690589 44.75517269 41.8203125 44.79101562 C45.5466716 44.87583738 49.27310463 44.94269724 53 45 C53.38218767 46.65614657 53.71395102 48.32457024 54 50 C52.02060234 51.97939766 48.16585244 51.21129916 45.45703125 51.23828125 C44.69581467 51.246353 43.93459808 51.25442474 43.15031433 51.26274109 C41.53374521 51.27660085 39.91714658 51.28731451 38.30053711 51.29516602 C35.83975639 51.31231011 33.38034338 51.35616777 30.91992188 51.40039062 C29.34896821 51.41052348 27.77800312 51.41903773 26.20703125 51.42578125 C25.47555374 51.44328934 24.74407623 51.46079742 23.99043274 51.47883606 C18.83107418 51.45718173 15.87261934 50.40034007 12 47 C9.1766586 42.64047935 8.4341114 38.63417816 7.83203125 33.51953125 C7.74749191 32.82486252 7.66295258 32.13019379 7.57585144 31.41447449 C7.31093289 29.2149129 7.06170947 27.01389051 6.8125 24.8125 C6.63444903 23.32344954 6.45542164 21.83451549 6.27539062 20.34570312 C5 9.6475009 5 9.6475009 5 6 C3.35 5.67 1.7 5.34 0 5 C0 3.35 0 1.7 0 0 Z M13 14 C13.13736643 24.16612805 13.13736643 24.16612805 15 34 C19.91123589 34.09898615 24.82188938 34.17152247 29.73388672 34.21972656 C31.40423702 34.23982393 33.07451713 34.26710683 34.74462891 34.30175781 C37.1476372 34.35036119 39.54971434 34.37298656 41.953125 34.390625 C42.69806213 34.41127014 43.44299927 34.43191528 44.21051025 34.45318604 C47.65530791 34.45467193 49.6172168 34.28257817 52.42480469 32.20996094 C56.46083364 26.5475099 56 20.75662145 56 14 C41.81 14 27.62 14 13 14 Z " fill="#FDF7EB" transform="translate(0,0)"/>
<path d="M0 0 C3.0625 0.3125 3.0625 0.3125 4.9375 1.4375 C6.56781294 4.15468824 6.39265665 6.20902746 6.0625 9.3125 C4.0625 11.3125 4.0625 11.3125 0.5625 11.5625 C-2.9375 11.3125 -2.9375 11.3125 -4.9375 9.3125 C-5.1875 5.8125 -5.1875 5.8125 -4.9375 2.3125 C-2.9375 0.3125 -2.9375 0.3125 0 0 Z " fill="#FDF7EB" transform="translate(44.9375,52.6875)"/>
<path d="M0 0 C2 2 2 2 2.25 5.5 C2 9 2 9 0 11 C-3.5 11.25 -3.5 11.25 -7 11 C-9 9 -9 9 -9.3125 6.0625 C-9 3 -9 3 -7.875 1.125 C-5.15781176 -0.50531294 -3.10347254 -0.33015665 0 0 Z " fill="#FDF7EB" transform="translate(22,53)"/>
</svg>
