<?xml version="1.0" encoding="UTF-8"?>
<svg version="1.1" xmlns="http://www.w3.org/2000/svg" width="64" height="64">
<path d="M0 0 C1.08087891 -0.020625 2.16175781 -0.04125 3.27539062 -0.0625 C10.56875395 -0.09831762 15.07950252 0.6600021 20.8125 5.4375 C24.67781974 10.01485232 27.19319199 14.46719548 27.6875 20.5 C27.79038187 24.2710505 27.79038187 24.2710505 30.18554688 26.14282227 C32.71326056 28.80339505 32.70161696 30.09701954 32.71875 33.71484375 C32.72648437 35.28588867 32.72648437 35.28588867 32.734375 36.88867188 C32.71890625 37.97728516 32.7034375 39.06589844 32.6875 40.1875 C32.71070312 41.81461914 32.71070312 41.81461914 32.734375 43.47460938 C32.69501853 51.47873168 32.69501853 51.47873168 30.203125 55.265625 C29.53796875 55.92046875 28.8728125 56.5753125 28.1875 57.25 C27.38527849 60.939748 27.38527849 60.939748 27.1875 64.25 C25.2075 64.25 23.2275 64.25 21.1875 64.25 C21.1875 62.6 21.1875 60.95 21.1875 59.25 C7.3275 59.25 -6.5325 59.25 -20.8125 59.25 C-20.8125 60.9 -20.8125 62.55 -20.8125 64.25 C-22.7925 64.25 -24.7725 64.25 -26.8125 64.25 C-26.895 63.198125 -26.9775 62.14625 -27.0625 61.0625 C-27.4420119 57.24177387 -27.4420119 57.24177387 -29.828125 55.265625 C-32.95514435 50.51354048 -32.39177326 45.74653718 -32.3125 40.1875 C-32.32796875 39.09888672 -32.3434375 38.01027344 -32.359375 36.88867188 C-32.35421875 35.84130859 -32.3490625 34.79394531 -32.34375 33.71484375 C-32.33923828 32.762146 -32.33472656 31.80944824 -32.33007812 30.82788086 C-31.67245941 27.55250538 -30.24732537 26.45209124 -27.8125 24.25 C-27.09006785 21.72164663 -27.09006785 21.72164663 -26.875 19 C-25.78427125 11.89603622 -23.37816018 7.25121494 -17.6875 2.8125 C-11.8467274 -0.36183294 -6.50058224 0.03068121 0 0 Z M-18.125 12.4375 C-20.41339324 16.25148874 -21.20082677 19.80112592 -20.8125 24.25 C-19.52284824 25.62562854 -18.18560707 26.95766393 -16.8125 28.25 C-16.4825 31.22 -16.1525 34.19 -15.8125 37.25 C-5.2525 37.25 5.3075 37.25 16.1875 37.25 C16.5175 34.28 16.8475 31.31 17.1875 28.25 C18.239375 27.26 18.239375 27.26 19.3125 26.25 C21.35892749 24.45968339 21.35892749 24.45968339 21.4375 22.26171875 C21.14531133 16.82883564 19.50525472 13.62894665 15.85546875 9.66015625 C11.05009036 5.59752955 6.3287591 5.88368147 0.3125 5.875 C-0.57308594 5.85050781 -1.45867188 5.82601563 -2.37109375 5.80078125 C-9.37634363 5.76946121 -12.98998023 7.58004886 -18.125 12.4375 Z M-24.8125 30.25 C-26.96261953 32.40011953 -25.99770645 37.14797798 -26 40.125 C-26.01224609 40.95386719 -26.02449219 41.78273438 -26.03710938 42.63671875 C-26.03904297 43.43464844 -26.04097656 44.23257813 -26.04296875 45.0546875 C-26.04707764 45.78671387 -26.05118652 46.51874023 -26.05541992 47.27294922 C-25.92336847 49.57021044 -25.92336847 49.57021044 -23.8125 52.25 C-23.1525 52.25 -22.4925 52.25 -21.8125 52.25 C-21.8125 45.32 -21.8125 38.39 -21.8125 31.25 C-22.8025 30.92 -23.7925 30.59 -24.8125 30.25 Z M23.1875 30.25 C21.95965191 31.25559794 21.95965191 31.25559794 22.07397461 33.29125977 C22.07921143 34.16580811 22.08444824 35.04035645 22.08984375 35.94140625 C22.09306641 36.88564453 22.09628906 37.82988281 22.09960938 38.80273438 C22.10798828 39.79595703 22.11636719 40.78917969 22.125 41.8125 C22.12951172 42.80958984 22.13402344 43.80667969 22.13867188 44.83398438 C22.15049993 47.30604849 22.16698151 49.77799518 22.1875 52.25 C23.1775 51.92 24.1675 51.59 25.1875 51.25 C26.3357685 48.953463 26.30311175 47.66686833 26.28515625 45.1171875 C26.28193359 44.31152344 26.27871094 43.50585938 26.27539062 42.67578125 C26.26701172 41.83402344 26.25863281 40.99226563 26.25 40.125 C26.24548828 39.27550781 26.24097656 38.42601562 26.23632812 37.55078125 C26.22452874 35.45049091 26.20659306 33.3502367 26.1875 31.25 C25.1975 30.92 24.2075 30.59 23.1875 30.25 Z M-15.8125 43.25 C-15.8125 46.55 -15.8125 49.85 -15.8125 53.25 C-5.2525 53.25 5.3075 53.25 16.1875 53.25 C16.1875 49.95 16.1875 46.65 16.1875 43.25 C5.6275 43.25 -4.9325 43.25 -15.8125 43.25 Z " fill="#06236E" transform="translate(31.8125,-0.25)"/>
</svg>
