<?xml version="1.0" standalone="no"?>
<!DOCTYPE svg PUBLIC "-//W3C//DTD SVG 20010904//EN"
 "http://www.w3.org/TR/2001/REC-SVG-20010904/DTD/svg10.dtd">
<svg version="1.0" xmlns="http://www.w3.org/2000/svg"
 width="64.000000pt" height="64.000000pt" viewBox="0 0 64.000000 64.000000"
 preserveAspectRatio="xMidYMid meet">

<g transform="translate(0.000000,64.000000) scale(0.100000,-0.100000)"
fill="#000000" stroke="none">
<path d="M173 615 c-63 -32 -99 -82 -115 -160 -7 -38 -20 -69 -35 -84 -21 -22
-23 -32 -23 -126 0 -93 2 -106 25 -139 14 -20 25 -47 25 -60 0 -33 25 -53 45
-36 8 7 15 19 15 26 0 11 38 14 210 14 172 0 210 -3 210 -14 0 -7 7 -19 15
-26 20 -17 45 3 45 36 0 13 11 40 25 60 22 33 25 47 25 131 0 91 -9 130 -35
145 -7 4 -16 29 -20 55 -9 64 -26 102 -61 137 -50 50 -98 66 -205 66 -82 0
-102 -3 -146 -25z m267 -47 c86 -44 119 -145 65 -197 -18 -17 -25 -34 -25 -62
l0 -39 -160 0 -160 0 0 31 c0 34 -16 70 -36 82 -23 13 -17 89 9 128 35 53 97
79 187 79 59 0 86 -5 120 -22z m-342 -230 c14 -14 17 -228 4 -228 -5 0 -17 6
-28 14 -16 12 -20 29 -23 105 -2 62 1 96 9 106 15 18 22 19 38 3z m480 0 c16
-16 16 -162 1 -191 -12 -22 -28 -37 -41 -37 -5 0 -8 49 -8 108 0 100 7 132 30
132 3 0 11 -5 18 -12z m-98 -178 l0 -50 -160 0 -160 0 0 50 0 50 160 0 160 0
0 -50z"/>
</g>
</svg>
