<?xml version="1.0" encoding="UTF-8"?>
<svg version="1.1" xmlns="http://www.w3.org/2000/svg" width="64" height="64">
<path d="M0 0 C8.34468007 4.97590182 13.53387008 11.86345977 16.109375 21.2578125 C17.10789012 32.35758522 16.45884702 41.9922991 9.359375 51.0703125 C3.70168013 57.1280464 -3.34488592 60.84888618 -11.625 61.59375 C-22.35447774 61.83515993 -31.19802606 60.58332943 -39.359375 52.9609375 C-46.75303791 44.73737365 -48.47252567 36.02335615 -48.203125 25.24609375 C-47.72879865 16.86039919 -44.11592977 9.8548755 -37.890625 4.2578125 C-27.15195714 -3.81766573 -12.32399863 -5.91386512 0 0 Z M-12.890625 3.2578125 C-12.65236188 10.76310076 -10.91580461 15.59739574 -5.890625 21.2578125 C-1.20058756 25.32101916 4.12069902 25.98621722 10.109375 26.2578125 C8.2860918 17.44527703 4.6254008 11.38443774 -2.890625 6.2578125 C-6.08300833 4.71646286 -9.29154095 3.2578125 -12.890625 3.2578125 Z M-34.765625 10.4453125 C-38.76985249 14.82819035 -41.890625 20.2330951 -41.890625 26.2578125 C-41.12878906 26.33257813 -40.36695313 26.40734375 -39.58203125 26.484375 C-30.97029456 27.58100065 -25.01725605 29.77620243 -19.07421875 36.23046875 C-14.66211014 42.0884732 -13.59655041 48.064676 -12.890625 55.2578125 C-4.07808953 53.4345293 1.98274976 49.7738383 7.109375 42.2578125 C8.65072464 39.06542917 10.109375 35.85689655 10.109375 32.2578125 C9.34753906 32.18304688 8.58570313 32.10828125 7.80078125 32.03125 C-0.81095544 30.93462435 -6.76399395 28.73942257 -12.70703125 22.28515625 C-17.11913986 16.4271518 -18.18469959 10.450949 -18.890625 3.2578125 C-24.65777135 3.2578125 -30.6445633 6.60137209 -34.765625 10.4453125 Z M-41.890625 32.2578125 C-40.0673418 41.07034797 -36.4066508 47.13118726 -28.890625 52.2578125 C-25.69824167 53.79916214 -22.48970905 55.2578125 -18.890625 55.2578125 C-19.12888812 47.75252424 -20.86544539 42.91822926 -25.890625 37.2578125 C-30.58066244 33.19460584 -35.90194902 32.52940778 -41.890625 32.2578125 Z " fill="#06236E" transform="translate(47.890625,2.7421875)"/>
</svg>
