<?xml version="1.0" standalone="no"?>
<!DOCTYPE svg PUBLIC "-//W3C//DTD SVG 20010904//EN"
 "http://www.w3.org/TR/2001/REC-SVG-20010904/DTD/svg10.dtd">
<svg version="1.0" xmlns="http://www.w3.org/2000/svg"
 width="64.000000pt" height="64.000000pt" viewBox="0 0 64.000000 64.000000"
 preserveAspectRatio="xMidYMid meet">

<g transform="translate(0.000000,64.000000) scale(0.100000,-0.100000)"
fill="#000000" stroke="none">
<path d="M223 622 c-109 -39 -178 -112 -210 -221 -29 -102 4 -228 82 -306 122
-121 328 -121 450 0 91 92 118 241 64 356 -69 146 -241 223 -386 171z m75 -84
c8 -125 103 -220 240 -243 47 -8 52 -21 28 -79 -31 -75 -134 -156 -197 -156
-21 0 -24 5 -27 42 -4 55 -35 125 -74 165 -37 38 -110 71 -167 75 -35 3 -41 6
-41 26 0 85 126 212 210 212 22 0 25 -5 28 -42z m126 28 c74 -31 156 -134 156
-195 0 -22 -3 -23 -49 -19 -95 9 -170 84 -179 178 -4 46 -3 50 17 50 12 0 37
-6 55 -14z m-225 -309 c50 -34 83 -88 89 -148 4 -46 3 -49 -19 -49 -83 0 -209
127 -209 211 0 20 4 21 50 17 30 -3 65 -15 89 -31z"/>
</g>
</svg>
