<?xml version="1.0" encoding="UTF-8"?>
<svg version="1.1" xmlns="http://www.w3.org/2000/svg" width="64" height="64">
<path d="M0 0 C4.8846525 2.26787438 7.73212562 5.1153475 10 10 C10.75381535 15.5997712 10.77303575 20.33499991 8.375 25.5 C3.80134327 30.3143755 0.6912538 32.25156236 -6 32.5 C-12.6912538 32.25156236 -15.80134327 30.3143755 -20.375 25.5 C-22.77303575 20.33499991 -22.75381535 15.5997712 -22 10 C-17.52212837 0.3553534 -9.85292056 -1.32635469 0 0 Z M-14 9 C-16.32826375 12.21522137 -16.39711181 15.10830425 -16 19 C-14.72311154 21.80915461 -13.68900183 23.50106764 -11.1875 25.3125 C-7.13938379 26.58476509 -4.12012891 26.50914951 -0.25 24.75 C2.16880375 22.8687082 3.08791905 21.90207573 4 19 C4.49276537 14.36800553 3.87025842 11.69033225 1 8 C-3.98424831 4.39071674 -9.34986731 5.38323013 -14 9 Z " fill="#FDF7EB" transform="translate(38,0)"/>
<path d="M0 0 C5.41985897 3.07590067 8.84616979 6.94583101 12 12.25 C12.97804887 16.45561016 12.77518206 20.64062437 12.625 24.9375 C10.975 24.9375 9.325 24.9375 7.625 24.9375 C7.3775 23.9475 7.13 22.9575 6.875 21.9375 C5.23476115 16.32196004 3.34237577 11.53220607 -1 7.5 C-6.83972877 4.79642186 -11.99922176 4.23645068 -18.1875 6.0625 C-26.27361855 10.81904033 -27.99990318 16.28536159 -30.375 24.9375 C-32.025 24.9375 -33.675 24.9375 -35.375 24.9375 C-35.88588807 18.01212844 -35.56055581 12.6618631 -31.375 6.9375 C-23.06613019 -2.13233066 -11.40555109 -5.21249167 0 0 Z " fill="#FDF7EB" transform="translate(43.375,39.0625)"/>
</svg>
